<?xml version="1.0" standalone="no"?>
<!DOCTYPE svg PUBLIC "-//W3C//DTD SVG 20010904//EN"
 "http://www.w3.org/TR/2001/REC-SVG-20010904/DTD/svg10.dtd">
<svg version="1.0" xmlns="http://www.w3.org/2000/svg"
 width="329.000000pt" height="329.000000pt" viewBox="0 0 329.000000 329.000000"
 preserveAspectRatio="xMidYMid meet">

<g transform="translate(0.000000,329.000000) scale(0.100000,-0.100000)"
fill="#000000" stroke="none">
<path d="M1335 2803 c-362 -46 -694 -276 -873 -605 -44 -81 -97 -228 -118
-328 -25 -116 -25 -343 0 -460 46 -215 131 -392 270 -559 l36 -43 0 190 c0
221 13 301 65 408 52 107 125 174 260 239 61 30 136 59 169 66 54 12 60 11 73
-7 8 -10 69 -115 135 -231 66 -117 123 -213 127 -213 6 0 46 69 174 300 38 69
80 137 95 152 42 45 104 63 215 62 l97 -1 0 37 c0 52 32 90 75 90 42 0 75 -38
75 -86 l0 -34 170 0 170 0 0 40 c0 46 34 90 70 90 26 0 26 1 -10 111 -50 151
-124 278 -238 407 -163 184 -449 336 -702 372 -63 9 -273 11 -335 3z m328
-251 c156 -77 252 -262 217 -419 -28 -129 -105 -230 -218 -285 -57 -28 -79
-34 -154 -36 -63 -3 -102 1 -140 13 -286 93 -375 428 -171 646 45 48 122 94
186 110 18 4 73 7 123 6 80 -2 99 -7 157 -35z"/>
<path d="M2343 1743 l-133 -4 0 -34 c0 -51 -15 -81 -49 -95 -26 -11 -35 -10
-56 4 -29 19 -45 53 -45 97 0 28 -1 29 -52 29 -71 0 -121 -15 -159 -47 -59
-50 -59 -52 -59 -515 0 -407 1 -423 21 -465 23 -48 59 -77 127 -103 l47 -18
-80 -37 c-191 -88 -295 -109 -500 -102 -82 3 -163 8 -180 12 l-30 6 32 -15
c68 -31 219 -56 342 -56 141 0 238 16 376 62 66 23 204 89 247 119 24 17 48
19 298 19 294 0 326 4 383 51 69 57 68 50 67 536 -1 490 0 483 -73 531 -31 21
-55 27 -108 30 l-69 4 0 -56 c0 -43 -5 -61 -20 -76 -27 -27 -66 -25 -95 5 -20
19 -25 34 -25 75 l0 50 -37 -2 c-21 -1 -98 -4 -170 -5z m517 -615 c0 -288 -2
-327 -18 -358 -30 -62 -35 -63 -467 -68 -350 -4 -394 -3 -423 12 -61 31 -62
40 -62 406 l0 330 485 0 485 0 0 -322z"/>
<path d="M2030 1245 l0 -65 75 0 75 0 0 43 c0 83 -4 87 -81 87 l-69 0 0 -65z"/>
<path d="M2280 1245 l0 -65 70 0 70 0 0 65 0 65 -70 0 -70 0 0 -65z"/>
<path d="M2683 1184 c-7 -3 -56 -53 -109 -112 -54 -59 -101 -108 -105 -110 -4
-2 -28 20 -55 48 -26 27 -54 50 -61 50 -16 0 -63 -44 -63 -59 0 -6 35 -49 77
-96 51 -55 85 -85 99 -85 13 0 40 22 71 58 28 31 87 97 132 147 86 95 97 123
59 149 -24 17 -26 17 -45 10z"/>
<path d="M2030 965 l0 -65 70 0 70 0 0 65 0 65 -70 0 -70 0 0 -65z"/>
<path d="M1063 1361 c-25 -11 -29 -24 -38 -109 l-7 -64 -52 3 c-88 4 -95 2
-113 -36 -25 -53 -9 -106 37 -122 19 -7 56 -12 82 -12 l46 -1 7 -65 c8 -76 26
-95 87 -95 58 0 78 26 78 100 l0 60 44 0 c100 0 136 26 136 98 0 53 -26 71
-105 74 l-70 3 -5 72 c-3 40 -10 77 -16 83 -16 16 -84 22 -111 11z"/>
</g>
</svg>
